<svg width="82" height="40" viewBox="0 0 82 40" fill="none" xmlns="http://www.w3.org/2000/svg">
<path d="M9.80357 14.9518V17.2892H0V1.55051H2.42898V14.9518H9.80357Z" fill="black"/>
<path d="M14.4357 2.92374C13.9098 2.92374 13.5202 2.78738 13.267 2.51858C13.0024 2.23141 12.8623 1.8511 12.8774 1.46089C12.8786 1.08749 13.0173 0.727612 13.267 0.449955C13.5267 0.149985 13.9163 0 14.4357 0C14.9597 0 15.3473 0.134404 15.6044 0.403208C15.8678 0.691163 16.0076 1.07092 15.994 1.46089C15.9922 1.83476 15.8536 2.19504 15.6044 2.47378C15.3473 2.77375 14.9597 2.92374 14.4357 2.92374ZM15.6259 17.2911H13.3098V5.48712H15.6259V17.2911Z" fill="black"/>
<path d="M30.1276 5.48713V17.2912H27.7901V15.468C27.3529 16.0317 26.8104 16.5053 26.1929 16.8626C25.4539 17.3067 24.6045 17.5329 23.7425 17.5152C22.7827 17.5254 21.8408 17.2546 21.033 16.736C20.2008 16.1964 19.5282 15.4438 19.0852 14.5564C18.5919 13.5649 18.3453 12.469 18.3664 11.3619C18.3444 10.2563 18.5995 9.16272 19.1086 8.18102C19.5778 7.28581 20.2866 6.53861 21.1557 6.02279C22.0548 5.49688 23.0808 5.2274 24.1223 5.24365C24.8815 5.22507 25.6319 5.40931 26.2961 5.77736C26.8709 6.09771 27.3788 6.52556 27.7921 7.03763V5.47934L30.1276 5.48713ZM24.284 15.3784C24.9518 15.3926 25.609 15.2097 26.1734 14.8524C26.7158 14.4949 27.1508 13.9967 27.4317 13.411C27.7395 12.7696 27.8935 12.0654 27.8817 11.3541C27.8927 10.6541 27.7386 9.96142 27.4317 9.3322C27.1499 8.75076 26.7148 8.25714 26.1734 7.90443C25.612 7.56027 24.9668 7.37698 24.3083 7.37457C23.6498 7.37217 23.0033 7.55074 22.4394 7.89079C21.8977 8.23895 21.4623 8.72957 21.1811 9.30883C20.8725 9.94578 20.7184 10.6465 20.7311 11.3541C20.7193 12.0654 20.8734 12.7696 21.1811 13.411C21.4621 13.9967 21.897 14.4949 22.4394 14.8524C22.9883 15.2055 23.6294 15.3885 24.2821 15.3784H24.284Z" fill="black"/>
<path d="M39.3682 5.28457C40.3434 5.28457 41.1226 5.50533 41.7056 5.94684C42.3019 6.40639 42.7415 7.03916 42.964 7.75835C43.2128 7.33547 43.5233 6.95207 43.8853 6.62081C44.3043 6.23027 44.7822 5.90817 45.3014 5.66635C45.8428 5.40832 46.4352 5.27519 47.035 5.27678C48.0531 5.27678 48.8471 5.49754 49.4172 5.93905C49.9933 6.39174 50.4141 7.01266 50.621 7.7155C50.8607 8.52188 50.9776 9.35977 50.9677 10.201V17.2834H48.6303V10.3432C48.6303 9.47442 48.4654 8.76994 48.1355 8.22973C47.8057 7.68953 47.1837 7.41942 46.2695 7.41942C45.8756 7.40673 45.4831 7.47291 45.1152 7.61407C44.7472 7.75523 44.4112 7.96853 44.1268 8.24142C43.8558 8.49611 43.6408 8.80451 43.4956 9.14693C43.3503 9.48935 43.2781 9.85828 43.2834 10.2302V17.2912H40.946V10.2984C40.9758 9.57051 40.7879 8.85031 40.4064 8.22973C40.0461 7.69018 39.452 7.41942 38.63 7.41942C38.0944 7.4134 37.5665 7.54771 37.099 7.80899C36.6686 8.04877 36.3055 8.3931 36.0432 8.8102C35.7845 9.22476 35.6493 9.70452 35.6537 10.1932V17.299H33.3162V5.49494H35.6537V7.38241C36.0556 6.80113 36.5719 6.30799 37.171 5.93321C37.8225 5.50298 38.5876 5.27712 39.3682 5.28457Z" fill="black"/>
<path d="M2.38418 24.0269L7.53042 32.4221L12.7721 24.0269H15.018V39.7655H12.591V33.3201C12.591 32.3773 12.6098 31.482 12.6474 30.634C12.6851 29.786 12.75 28.942 12.8422 28.1018L8.20632 35.2543H6.72206L2.20303 28.129C2.29263 28.9666 2.35301 29.8055 2.38418 30.6457C2.41534 31.4859 2.43028 32.3773 2.42898 33.3201V39.7733H0V24.0269H2.38418Z" fill="black"/>
<path d="M28.9802 38.2228H28.9588C28.3792 38.7502 27.7095 39.1692 26.9817 39.4597C26.0435 39.8517 25.0308 40.0333 24.0149 39.9919C22.9989 39.9505 22.0044 39.6871 21.1012 39.2201C20.1865 38.7218 19.4275 37.9802 18.9079 37.0775C18.3778 36.1347 18.1089 35.0676 18.1287 33.9862C18.1287 32.6681 18.4066 31.5397 18.9624 30.6008C19.4857 29.6941 20.2477 28.9483 21.1654 28.4445C22.0812 27.9443 23.1101 27.6881 24.1535 27.7004C25.1027 27.6898 26.0364 27.9419 26.8512 28.4289C27.6619 28.9185 28.3291 29.6132 28.7855 30.443C29.2806 31.3611 29.5284 32.3922 29.5042 33.435L29.4828 34.4225H20.4447C20.5353 35.406 21.0072 36.3149 21.7595 36.9548C22.4997 37.5755 23.4399 37.8865 24.58 37.8878C25.4033 37.8878 26.0708 37.7339 26.5824 37.4261C27.0257 37.1654 27.4466 36.8683 27.8407 36.5379L28.9802 38.2228ZM24.1535 29.8353C23.3363 29.8161 22.5306 30.031 21.8316 30.4547C21.1713 30.8696 20.7389 31.5767 20.5285 32.5818H27.1376V32.424C27.1014 31.9349 26.9256 31.4664 26.6311 31.0741C26.3453 30.6882 25.9713 30.3763 25.5403 30.1645C25.1105 29.9468 24.6352 29.834 24.1535 29.8353Z" fill="black"/>
<path d="M38.1996 27.7278C39.2631 27.7278 40.0877 27.9453 40.6733 28.3803C41.2584 28.8189 41.6878 29.4332 41.8985 30.1334C42.1393 30.9282 42.2569 31.7553 42.2472 32.5857V39.7792H39.9312V32.7377C39.9391 32.2186 39.8635 31.7017 39.7072 31.2067C39.5737 30.7808 39.3058 30.4097 38.9436 30.149C38.5833 29.8957 38.0827 29.7906 37.436 29.8354C36.8798 29.8281 36.3309 29.9622 35.8407 30.2249C35.3943 30.4644 35.0157 30.8128 34.7401 31.2378C34.4714 31.6523 34.3305 32.1366 34.335 32.6305V39.7812H32.017V27.9713H34.333V29.8354C34.7416 29.234 35.2793 28.7316 35.9069 28.3647C36.595 27.9388 37.3903 27.7178 38.1996 27.7278Z" fill="black"/>
<path d="M56.4568 23.1366V39.7733H54.1505V38.1098C53.7318 38.6382 53.212 39.0779 52.6214 39.4032C51.9226 39.808 51.1265 40.0141 50.3191 39.9993C49.3053 40.0151 48.3075 39.7451 47.4401 39.2201C46.5807 38.6898 45.8818 37.9357 45.4183 37.0385C44.9289 36.0513 44.6742 34.9644 44.6742 33.8625C44.6742 32.7607 44.9289 31.6737 45.4183 30.6865C45.8791 29.7954 46.5689 29.0431 47.4168 28.5069C48.269 27.9816 49.2538 27.7112 50.2548 27.7277C50.9901 27.7231 51.7179 27.8754 52.3896 28.1743C53.0614 28.4733 53.6617 28.912 54.1505 29.4613V23.1366H56.4568ZM50.6444 37.9969C51.3136 38.0119 51.9717 37.8238 52.5318 37.4573C53.0798 37.0877 53.5152 36.5741 53.7902 35.973C54.0869 35.3062 54.2402 34.5846 54.2402 33.8547C54.2402 33.1249 54.0869 32.4032 53.7902 31.7364C53.5122 31.1404 53.0772 30.6313 52.5318 30.2639C51.969 29.9113 51.3182 29.7243 50.6541 29.7243C49.9899 29.7243 49.3392 29.9113 48.7764 30.2639C48.2293 30.6327 47.7909 31.1411 47.5064 31.7364C47.2035 32.4016 47.0467 33.1239 47.0467 33.8547C47.0467 34.5856 47.2035 35.3079 47.5064 35.973C47.7875 36.5737 48.2264 37.0867 48.7764 37.4573C49.3303 37.8215 49.9815 38.0096 50.6444 37.9969Z" fill="black"/>
<path d="M69.7877 38.2228H69.7643C69.1841 38.7504 68.5138 39.1694 67.7853 39.4597C66.8473 39.8514 65.835 40.0329 64.8194 39.9915C63.8039 39.9501 62.8097 39.6868 61.9067 39.2201C60.992 38.7225 60.2334 37.9808 59.7154 37.0775C59.1844 36.1351 58.9154 35.0677 58.9362 33.9863C58.9362 32.6682 59.2135 31.5397 59.7679 30.6009C60.2918 29.6946 61.0536 28.9489 61.971 28.4446C62.8865 27.9411 63.9161 27.6815 64.9609 27.6908C65.9101 27.6801 66.8438 27.9323 67.6587 28.4193C68.4697 28.9083 69.137 29.6032 69.5929 30.4334C70.0888 31.3512 70.3371 32.3823 70.3136 33.4253L70.2902 34.4128H61.2522C61.3427 35.3963 61.8147 36.3052 62.567 36.945C63.3085 37.5658 64.2493 37.8768 65.3894 37.8781C66.2114 37.8781 66.8782 37.7242 67.3899 37.4164C67.8341 37.1561 68.2556 36.859 68.6501 36.5282L69.7877 38.2228ZM64.9531 29.8354C64.1386 29.8177 63.3359 30.0325 62.6391 30.4548C61.9788 30.8697 61.5444 31.5768 61.334 32.5819H67.945V32.4241C67.907 31.9353 67.7314 31.4673 67.4386 31.0742C67.1491 30.6889 66.7737 30.3764 66.3422 30.1617C65.9107 29.9469 65.4351 29.8359 64.9531 29.8373V29.8354Z" fill="black"/>
<path d="M79.636 31.0722C79.2173 30.6547 78.7355 30.3056 78.2082 30.0379C77.7555 29.7906 77.2512 29.6526 76.7356 29.6347C76.4213 29.6337 76.108 29.6709 75.8026 29.7457C75.5097 29.8108 75.2402 29.955 75.0235 30.1626C74.9121 30.2806 74.8265 30.4205 74.7722 30.5735C74.7179 30.7264 74.696 30.8889 74.7079 31.0508C74.702 31.293 74.7682 31.5314 74.8983 31.7357C75.0284 31.9401 75.2164 32.101 75.4384 32.1981C76.007 32.455 76.5985 32.6578 77.2051 32.8039C77.8176 32.969 78.4182 33.1753 79.0029 33.4213C79.5677 33.6558 80.0656 34.0265 80.4521 34.5004C80.8378 34.9744 81.0306 35.6386 81.0306 36.4931C81.0474 37.1751 80.8294 37.8421 80.4132 38.3825C79.9915 38.9131 79.4409 39.3269 78.814 39.5843C78.1645 39.8616 77.4652 40.0028 76.759 39.9992C75.8942 39.9978 75.0365 39.8415 74.2268 39.5376C73.3828 39.2206 72.6459 38.6708 72.1017 37.952L73.6756 36.6041C74.0617 37.0532 74.5314 37.423 75.0585 37.693C75.6518 37.9714 76.3027 38.1049 76.9577 38.0825C77.2489 38.0825 77.5381 38.0331 77.8128 37.9365C78.092 37.8431 78.3432 37.681 78.5432 37.4651C78.7564 37.2199 78.8654 36.9012 78.8471 36.5769C78.8557 36.4211 78.8309 36.2653 78.7745 36.1198C78.7181 35.9744 78.6313 35.8427 78.5199 35.7334C78.2693 35.5103 77.9747 35.3424 77.655 35.2406C77.2639 35.1034 76.8661 34.9863 76.4629 34.89C75.8167 34.709 75.1824 34.4878 74.5638 34.2277C73.9611 33.9837 73.4265 33.5974 73.0055 33.1019C72.5926 32.6162 72.3861 31.9533 72.3861 31.1131C72.3697 30.4592 72.5803 29.8198 72.9821 29.3036C73.3946 28.7887 73.9307 28.3866 74.5404 28.1349C75.1987 27.8559 75.9078 27.7172 76.6227 27.7278C77.4079 27.7431 78.1844 27.8954 78.9172 28.1777C79.718 28.461 80.4255 28.959 80.9625 29.6172L79.636 31.0722Z" fill="black"/>
<mask id="mask0_1_5" style="mask-type:alpha" maskUnits="userSpaceOnUse" x="56" y="2" width="26" height="16">
<path fill-rule="evenodd" clip-rule="evenodd" d="M81.0318 17.2192L56.7222 17.2192L56.7222 2.02579L81.0318 2.02579V17.2192Z" fill="white"/>
</mask>
<g mask="url(#mask0_1_5)">
<path fill-rule="evenodd" clip-rule="evenodd" d="M81.0318 17.2192L56.7222 17.2192L56.7222 2.02579L81.0318 2.02579V17.2192Z" fill="black"/>
<path fill-rule="evenodd" clip-rule="evenodd" d="M58.7481 14.4772L60.7739 16.503L62.7997 14.4772L64.8255 16.503L66.8513 14.4772L68.877 16.503L70.9028 14.4772L72.9286 16.503L74.9544 14.4772L76.9802 16.503L79.006 14.4772L81.3899 16.8611L80.6737 17.5774L79.006 15.9097L76.9802 17.9355L74.9544 15.9097L72.9286 17.9355L70.9028 15.9097L68.877 17.9355L66.8513 15.9097L64.8255 17.9355L62.7997 15.9097L60.7739 17.9355L58.7481 15.9097L57.0804 17.5774L56.3642 16.8611L58.7481 14.4772Z" fill="white"/>
<path fill-rule="evenodd" clip-rule="evenodd" d="M58.7481 12.4514L60.7739 14.4772L62.7997 12.4514L64.8255 14.4772L66.8513 12.4514L68.877 14.4772L70.9028 12.4514L72.9286 14.4772L74.9544 12.4514L76.9802 14.4772L79.006 12.4514L81.3899 14.8354L80.6737 15.5516L79.006 13.8839L76.9802 15.9097L74.9544 13.8839L72.9286 15.9097L70.9028 13.8839L68.877 15.9097L66.8513 13.8839L64.8255 15.9097L62.7997 13.8839L60.7739 15.9097L58.7481 13.8839L57.0804 15.5516L56.3642 14.8354L58.7481 12.4514Z" fill="white"/>
<path fill-rule="evenodd" clip-rule="evenodd" d="M58.7481 10.4257L60.7739 12.4515L62.7997 10.4257L64.8255 12.4515L66.8513 10.4257L68.877 12.4515L70.9028 10.4257L72.9286 12.4515L74.9544 10.4257L76.9802 12.4515L79.006 10.4257L81.3899 12.8096L80.6737 13.5258L79.006 11.8581L76.9802 13.8839L74.9544 11.8581L72.9286 13.8839L70.9028 11.8581L68.877 13.8839L66.8513 11.8581L64.8255 13.8839L62.7997 11.8581L60.7739 13.8839L58.7481 11.8581L57.0804 13.5258L56.3642 12.8096L58.7481 10.4257Z" fill="white"/>
<path fill-rule="evenodd" clip-rule="evenodd" d="M58.7481 8.39984L60.7739 10.4256L62.7997 8.39984L64.8255 10.4256L66.8513 8.39984L68.877 10.4256L70.9028 8.39984L72.9286 10.4256L74.9544 8.39984L76.9802 10.4256L79.006 8.39984L81.3899 10.7837L80.6737 11.5L79.006 9.83229L76.9802 11.8581L74.9544 9.83229L72.9286 11.8581L70.9028 9.83229L68.877 11.8581L66.8513 9.83229L64.8255 11.8581L62.7997 9.83229L60.7739 11.8581L58.7481 9.83229L57.0804 11.5L56.3642 10.7837L58.7481 8.39984Z" fill="white"/>
<path fill-rule="evenodd" clip-rule="evenodd" d="M58.7481 6.37405L60.7739 8.39985L62.7997 6.37405L64.8255 8.39985L66.8513 6.37405L68.877 8.39985L70.9028 6.37405L72.9286 8.39985L74.9544 6.37405L76.9802 8.39985L79.006 6.37405L81.3899 8.75796L80.6737 9.47419L79.006 7.80651L76.9802 9.8323L74.9544 7.80651L72.9286 9.8323L70.9028 7.80651L68.877 9.8323L66.8513 7.80651L64.8255 9.8323L62.7997 7.80651L60.7739 9.8323L58.7481 7.80651L57.0804 9.47419L56.3642 8.75796L58.7481 6.37405Z" fill="white"/>
<path fill-rule="evenodd" clip-rule="evenodd" d="M58.7481 4.34827L60.7739 6.37406L62.7997 4.34827L64.8255 6.37406L66.8513 4.34827L68.877 6.37406L70.9028 4.34827L72.9286 6.37406L74.9544 4.34827L76.9802 6.37406L79.006 4.34827L81.3899 6.73217L80.6737 7.4484L79.006 5.78072L76.9802 7.80651L74.9544 5.78072L72.9286 7.80651L70.9028 5.78072L68.877 7.80651L66.8513 5.78072L64.8255 7.80651L62.7997 5.78072L60.7739 7.80651L58.7481 5.78072L57.0804 7.4484L56.3642 6.73217L58.7481 4.34827Z" fill="white"/>
<path fill-rule="evenodd" clip-rule="evenodd" d="M58.7481 2.32248L60.7739 4.34827L62.7997 2.32248L64.8255 4.34827L66.8513 2.32248L68.877 4.34827L70.9028 2.32248L72.9286 4.34827L74.9544 2.32248L76.9802 4.34827L79.006 2.32248L81.3899 4.70639L80.6737 5.42261L79.006 3.75493L76.9802 5.78073L74.9544 3.75493L72.9286 5.78073L70.9028 3.75493L68.877 5.78073L66.8513 3.75493L64.8255 5.78073L62.7997 3.75493L60.7739 5.78073L58.7481 3.75493L57.0804 5.42261L56.3642 4.70639L58.7481 2.32248Z" fill="white"/>
<path fill-rule="evenodd" clip-rule="evenodd" d="M58.7481 0.296692L60.7739 2.32249L62.7997 0.296692L64.8255 2.32249L66.8513 0.296692L68.877 2.32249L70.9028 0.296692L72.9286 2.32249L74.9544 0.296692L76.9802 2.32249L79.006 0.296692L81.3899 2.6806L80.6737 3.39683L79.006 1.72915L76.9802 3.75494L74.9544 1.72915L72.9286 3.75494L70.9028 1.72915L68.877 3.75494L66.8513 1.72915L64.8255 3.75494L62.7997 1.72914L60.7739 3.75494L58.7481 1.72914L57.0804 3.39683L56.3642 2.6806L58.7481 0.296692Z" fill="white"/>
<path fill-rule="evenodd" clip-rule="evenodd" d="M58.7481 16.503L60.7739 18.5288L62.7997 16.503L64.8255 18.5288L66.8513 16.503L68.877 18.5288L70.9028 16.503L72.9286 18.5288L74.9544 16.503L76.9802 18.5288L79.006 16.503L81.3899 18.8869L80.6737 19.6032L79.006 17.9355L76.9802 19.9613L74.9544 17.9355L72.9286 19.9613L70.9028 17.9355L68.877 19.9613L66.8513 17.9355L64.8255 19.9613L62.7997 17.9355L60.7739 19.9613L58.7481 17.9355L57.0804 19.6032L56.3642 18.8869L58.7481 16.503Z" fill="white"/>
<path d="M56.7222 2.02579H68.877V11.1419H56.7222V2.02579Z" fill="black"/>
<path d="M59.6578 7.584V8H57.9658L57.8338 7.672L58.6898 6.708C58.7991 6.58533 58.8991 6.46267 58.9898 6.34C59.0804 6.21733 59.1258 6.092 59.1258 5.964C59.1258 5.83067 59.0871 5.73067 59.0098 5.664C58.9324 5.59467 58.8311 5.56 58.7058 5.56C58.6444 5.56 58.5764 5.57867 58.5018 5.616C58.4271 5.65333 58.3564 5.712 58.2898 5.792C58.2231 5.872 58.1698 5.97733 58.1298 6.108L57.7978 5.9C57.8698 5.652 57.9938 5.46667 58.1698 5.344C58.3484 5.22133 58.5444 5.16 58.7578 5.16C58.9098 5.16 59.0471 5.192 59.1698 5.256C59.2924 5.31733 59.3898 5.40533 59.4618 5.52C59.5338 5.63467 59.5698 5.772 59.5698 5.932C59.5698 6.116 59.5138 6.29867 59.4018 6.48C59.2924 6.65867 59.1578 6.836 58.9978 7.012L58.4738 7.584H59.6578ZM60.9972 8.04C60.7732 8.04 60.5838 7.97867 60.4292 7.856C60.2772 7.73067 60.1625 7.56 60.0852 7.344C60.0078 7.128 59.9692 6.88 59.9692 6.6C59.9692 6.32 60.0078 6.072 60.0852 5.856C60.1625 5.64 60.2772 5.47067 60.4292 5.348C60.5838 5.22267 60.7732 5.16 60.9972 5.16C61.2238 5.16 61.4132 5.22267 61.5652 5.348C61.7172 5.47067 61.8318 5.64 61.9092 5.856C61.9892 6.072 62.0292 6.32 62.0292 6.6C62.0292 6.88 61.9892 7.128 61.9092 7.344C61.8318 7.56 61.7172 7.73067 61.5652 7.856C61.4132 7.97867 61.2238 8.04 60.9972 8.04ZM60.9972 7.648C61.1892 7.648 61.3385 7.55733 61.4452 7.376C61.5545 7.19467 61.6092 6.936 61.6092 6.6C61.6092 6.264 61.5545 6.00533 61.4452 5.824C61.3385 5.64267 61.1892 5.552 60.9972 5.552C60.8052 5.552 60.6545 5.64267 60.5452 5.824C60.4385 6.00533 60.3852 6.264 60.3852 6.6C60.3852 6.936 60.4385 7.19467 60.5452 7.376C60.6545 7.55733 60.8052 7.648 60.9972 7.648ZM64.2788 7.584V8H62.5868L62.4548 7.672L63.3108 6.708C63.4202 6.58533 63.5202 6.46267 63.6108 6.34C63.7015 6.21733 63.7468 6.092 63.7468 5.964C63.7468 5.83067 63.7082 5.73067 63.6308 5.664C63.5535 5.59467 63.4522 5.56 63.3268 5.56C63.2655 5.56 63.1975 5.57867 63.1228 5.616C63.0482 5.65333 62.9775 5.712 62.9108 5.792C62.8442 5.872 62.7908 5.97733 62.7508 6.108L62.4188 5.9C62.4908 5.652 62.6148 5.46667 62.7908 5.344C62.9695 5.22133 63.1655 5.16 63.3788 5.16C63.5308 5.16 63.6682 5.192 63.7908 5.256C63.9135 5.31733 64.0108 5.40533 64.0828 5.52C64.1548 5.63467 64.1908 5.772 64.1908 5.932C64.1908 6.116 64.1348 6.29867 64.0228 6.48C63.9135 6.65867 63.7788 6.836 63.6188 7.012L63.0948 7.584H64.2788ZM66.1663 8H64.8303V7.584H65.2743V5.724L64.8703 5.936L64.7543 5.56L65.5023 5.16H65.7103V7.584H66.1663V8Z" fill="white"/>
</g>
</svg>
